<svg width="20" height="20" viewBox="0 0 20 20" fill="none" xmlns="http://www.w3.org/2000/svg">
<path d="M3.05473 9.25979C2.70955 9.26076 2.37171 9.35944 2.08028 9.5444C1.78884 9.72937 1.55573 9.99307 1.40792 10.305C1.2601 10.6169 1.20361 10.9643 1.245 11.307C1.28638 11.6497 1.42394 11.9736 1.64176 12.2414L6.28523 17.9296C6.45079 18.1352 6.66301 18.2983 6.90427 18.4054C7.14553 18.5125 7.40886 18.5605 7.67238 18.5454C8.236 18.5151 8.74484 18.2136 9.06926 17.7179L18.7149 2.18356C18.7165 2.18099 18.7181 2.17841 18.7198 2.17587C18.8103 2.03691 18.781 1.76152 18.5942 1.58852C18.5429 1.54102 18.4824 1.50452 18.4164 1.48127C18.3505 1.45803 18.2804 1.44854 18.2107 1.45338C18.1409 1.45822 18.0729 1.47729 18.0108 1.50941C17.9486 1.54154 17.8938 1.58604 17.8495 1.64018C17.846 1.64444 17.8425 1.64863 17.8388 1.65276L8.11103 12.6437C8.07402 12.6855 8.02906 12.7196 7.97878 12.7439C7.92849 12.7682 7.87387 12.7822 7.8181 12.7852C7.76233 12.7883 7.70652 12.7802 7.6539 12.7614C7.60129 12.7427 7.55292 12.7137 7.51161 12.6761L4.28315 9.73818C3.94784 9.43081 3.50959 9.26014 3.05473 9.25979Z" fill="#37D80A"/>
</svg>
