<svg width="55" height="55" viewBox="0 0 55 55" fill="none" xmlns="http://www.w3.org/2000/svg">
<path fill-rule="evenodd" clip-rule="evenodd" d="M27.4195 9.02173C23.9397 7.95846 24.7129 2.771 28.3538 2.771C32.0269 2.771 32.8002 7.95846 29.2882 9.02173V15.4658C31.0603 15.8524 32.4136 17.4312 32.478 19.3C32.8969 19.0422 33.3158 18.8489 33.7991 18.72V13.3715C30.3193 12.3082 31.0926 7.12073 34.7335 7.12073C38.4066 7.12073 39.1476 12.3082 35.6678 13.3715V18.72C37.5044 19.1389 38.8576 20.7821 38.8576 22.7476L38.8254 41.6931L37.5044 46.1073V51.2947C37.5044 51.8102 37.0855 52.2291 36.57 52.2291H15.9168C15.4013 52.2291 14.9824 51.8102 14.9824 51.2947V46.075C14.048 42.6919 12.0826 41.2742 7.95841 41.1453C6.44405 41.0809 4.57528 41.6609 2.96426 40.1465C-0.289982 37.0534 3.09315 30.126 11.5026 32.6714V25.4218H6.25073C5.18746 28.9016 0 28.1606 0 24.4875C0 20.8143 5.18746 20.0733 6.25073 23.5531H11.5026V17.5601H6.25073C5.18746 21.0721 0 20.2988 0 16.6579C0 12.9848 5.18746 12.2115 6.25073 15.7235H11.5026V15.0469C11.5026 12.7593 13.3392 10.9227 15.6268 10.9227C17.4956 10.9227 19.0744 12.1793 19.5899 13.9192C21.8776 12.2438 25.164 13.3715 25.9695 16.1102C26.3884 15.8202 26.9039 15.5624 27.4195 15.4658V9.02173ZM50.618 25.8729H43.7551C43.2396 25.8729 42.8207 25.4541 42.8207 24.9385V18.43H40.3076C39.5021 18.43 39.0832 17.4634 39.6309 16.8513L46.4939 9.40837C46.8483 9.02173 47.5249 9.02173 47.8793 9.40837L54.6778 16.7868C55.3544 17.4634 54.8389 18.43 54.0656 18.43H51.5524V24.9385C51.5524 25.4541 51.1336 25.8729 50.618 25.8729ZM44.6895 24.0042H49.6837V17.4957C49.6837 16.3357 51.0369 16.5613 51.9069 16.5613L47.1705 11.406L42.4341 16.5613C43.3363 16.5613 44.6895 16.3357 44.6895 17.4957V24.0042ZM32.478 22.7153V26.6784C32.5103 27.9028 33.5091 28.9016 34.7335 28.9016C35.99 28.9016 36.9889 27.9028 36.9889 26.6462V22.7476C36.9889 19.7833 32.5103 19.7511 32.478 22.7153ZM36.9889 30.0938C35.2168 31.2537 32.8969 30.8993 31.5436 29.2561C29.4493 31.8015 25.3896 30.996 24.423 27.8384C22.0709 29.5783 18.72 28.3539 18.0111 25.5185C16.6257 26.5173 14.7891 26.5496 13.3714 25.6152V33.9924C13.3714 34.6046 12.7592 35.0879 12.0826 34.8624C7.70064 33.1547 5.02636 34.3146 4.05975 35.829C3.38313 36.86 3.47979 38.0522 4.25308 38.7933C5.18746 39.6632 6.60516 39.2121 8.02285 39.2766C11.2127 39.3732 15.0146 40.1787 16.6257 45.0118H35.8612L36.9889 41.2742V30.0938ZM35.6356 46.8805H16.8512V50.3603H35.6356V46.8805ZM28.3538 17.2057C27.1295 17.2057 26.1306 18.2045 26.0984 19.4289V26.6462C26.0984 27.9028 27.1295 28.9016 28.3538 28.9016C29.6104 28.9016 30.6093 27.9028 30.6093 26.6462V19.4611C30.6093 18.2367 29.6104 17.2057 28.3538 17.2057ZM24.2296 22.7153V17.2701C24.2296 14.3381 19.7832 14.2092 19.751 17.3023V24.5197C19.751 25.7763 20.7499 26.7751 22.0064 26.7751C23.2308 26.7751 24.2296 25.7763 24.2296 24.5197V22.7153ZM17.8822 18.1401V15.0469C17.8822 13.7903 16.8512 12.7915 15.6268 12.7915C14.3702 12.7915 13.3714 13.7903 13.3714 15.0469V22.1998C13.3714 23.4242 14.4025 24.423 15.6268 24.423C16.8512 24.423 17.8822 23.4242 17.8822 22.1676V18.1401ZM3.18981 23.1664C1.44991 23.1664 1.44991 25.8085 3.18981 25.8085C4.96192 25.8085 4.96192 23.1664 3.18981 23.1664ZM3.18981 15.3047C1.44991 15.3047 1.44991 17.979 3.18981 17.979C4.96192 17.979 4.96192 15.3047 3.18981 15.3047ZM34.7335 8.98951C32.9936 8.98951 32.9936 11.6638 34.7335 11.6638C36.5056 11.6638 36.5056 8.98951 34.7335 8.98951ZM28.3538 4.63977C26.6139 4.63977 26.6139 7.31405 28.3538 7.31405C30.126 7.31405 30.126 4.63977 28.3538 4.63977Z" fill="black"/>
<path fill-rule="evenodd" clip-rule="evenodd" d="M24.423 27.8384C22.0709 29.5783 18.72 28.3539 18.0112 25.5186C16.6257 26.5174 14.7891 26.5496 13.3714 25.6152V33.9925C13.3714 34.6047 12.7593 35.088 12.0826 34.8624C7.70067 33.1548 5.02639 34.3147 4.05978 35.829C3.38316 36.8601 3.47982 38.0522 4.2531 38.7933C5.18749 39.6633 6.60518 39.2122 8.02287 39.2766C11.2127 39.3733 15.0147 40.1788 16.6257 45.0118H35.8612L36.9889 41.2743V30.0938C35.2168 31.2538 32.8969 30.8993 31.5437 29.2561C29.4494 31.8015 25.3896 30.996 24.423 27.8384Z" fill="#FFC06D"/>
<path fill-rule="evenodd" clip-rule="evenodd" d="M35.6356 46.8805H16.8512V50.3603H35.6356V46.8805Z" fill="#1AA1FF"/>
<path fill-rule="evenodd" clip-rule="evenodd" d="M32.478 26.6784C32.5102 27.9028 33.5091 28.9016 34.7334 28.9016C35.99 28.9016 36.9889 27.9028 36.9889 26.6462V22.7476C36.9889 19.7833 32.5102 19.7511 32.478 22.7153V26.6784Z" fill="#F4B361"/>
<path fill-rule="evenodd" clip-rule="evenodd" d="M30.6092 26.6462V19.4611C30.6092 18.2367 29.6104 17.2057 28.3538 17.2057C27.1294 17.2057 26.1306 18.2045 26.0984 19.4289V26.6462C26.0984 27.9028 27.1294 28.9016 28.3538 28.9016C29.6104 28.9016 30.6092 27.9028 30.6092 26.6462Z" fill="#F3AD58"/>
<path fill-rule="evenodd" clip-rule="evenodd" d="M24.2296 22.7153V17.2701C24.2296 14.338 19.7832 14.2092 19.751 17.3023V24.5197C19.751 25.7762 20.7498 26.7751 22.0064 26.7751C23.2308 26.7751 24.2296 25.7762 24.2296 24.5197V22.7153Z" fill="#F4B361"/>
<path fill-rule="evenodd" clip-rule="evenodd" d="M17.8823 22.1676V18.1401V15.0469C17.8823 13.7903 16.8512 12.7915 15.6269 12.7915C14.3703 12.7915 13.3715 13.7903 13.3715 15.0469V22.1998C13.3715 23.4242 14.4025 24.423 15.6269 24.423C16.8512 24.423 17.8823 23.4242 17.8823 22.1676Z" fill="#F3AD58"/>
<path fill-rule="evenodd" clip-rule="evenodd" d="M3.18981 17.979C4.96192 17.979 4.96192 15.3047 3.18981 15.3047C1.44991 15.3047 1.44991 17.979 3.18981 17.979Z" fill="#FF3131"/>
<path fill-rule="evenodd" clip-rule="evenodd" d="M3.18981 25.8084C4.96192 25.8084 4.96192 23.1664 3.18981 23.1664C1.44991 23.1664 1.44991 25.8084 3.18981 25.8084Z" fill="#FF3131"/>
<path fill-rule="evenodd" clip-rule="evenodd" d="M28.3539 4.63977C26.614 4.63977 26.614 7.31405 28.3539 7.31405C30.126 7.31405 30.126 4.63977 28.3539 4.63977Z" fill="#FF3131"/>
<path fill-rule="evenodd" clip-rule="evenodd" d="M34.7335 8.9895C32.9936 8.9895 32.9936 11.6638 34.7335 11.6638C36.5056 11.6638 36.5056 8.9895 34.7335 8.9895Z" fill="#FF3131"/>
<path fill-rule="evenodd" clip-rule="evenodd" d="M47.1705 11.406L42.4341 16.5612C43.3362 16.5612 44.6895 16.3357 44.6895 17.4956V24.0041H49.6836V17.4956C49.6836 16.3357 51.0369 16.5612 51.9068 16.5612L47.1705 11.406Z" fill="#1AA1FF"/>
</svg>
